<svg width="200" height="100" xmlns="http://www.w3.org/2000/svg">
 <!-- Created with Method Draw - http://github.com/duopixel/Method-Draw/ -->
 <g>
  <title>background</title>
  <rect fill="#fff" id="canvas_background" height="102" width="202" y="-1" x="-1"/>
  <g display="none" overflow="visible" y="0" x="0" height="100%" width="100%" id="canvasGrid">
   <rect fill="url(#gridpattern)" stroke-width="0" y="0" x="0" height="100%" width="100%"/>
  </g>
 </g>
 <g>
  <title>Layer 1</title>
  <text stroke="#000" transform="matrix(1,0,0,0.9629629850387573,0,0.7777773141860962) " xml:space="preserve" text-anchor="start" font-family="Helvetica, Arial, sans-serif" font-size="20" id="svg_1" y="43" x="5.67188" stroke-width="0" fill="#000000">hola Fer, this is SVG</text>
  <path stroke="#000" id="svg_2" d="m225.99999,32.89511l31.70341,0l9.7966,-24.44589l9.7966,24.44589l31.70341,0l-25.64855,15.10822l9.79711,24.44589l-25.64856,-15.10863l-25.64856,15.10863l9.79711,-24.44589l-25.64856,-15.10822z" stroke-opacity="null" stroke-width="0" fill="#ff0000"/>
  <path stroke="#000" id="svg_3" d="m55.3075,63.74043l30.5575,0l9.4425,-21.00819l9.44251,21.00819l30.5575,0l-24.72149,12.98362l9.44299,21.00819l-24.7215,-12.98398l-24.7215,12.98398l9.44299,-21.00819l-24.7215,-12.98362z" fill-opacity="null" stroke-opacity="null" stroke-width="0" fill="#ff0000"/>
 </g>
</svg>
